<svg id="SvgjsSvg1156" width="898" height="627" xmlns="http://www.w3.org/2000/svg" version="1.1" xmlns:xlink="http://www.w3.org/1999/xlink" xmlns:svgjs="http://svgjs.com/svgjs"><defs id="SvgjsDefs1157"></defs><g id="SvgjsG1158" transform="translate(25,32)"><path id="SvgjsPath1159" d="M 0 4Q 0 0 4 0L 844 0Q 848 0 848 4L 848 566Q 848 570 844 570L 4 570Q 0 570 0 566Z" stroke="rgba(50,50,50,1)" stroke-width="2" fill-opacity="1" fill="#e5e5e5"></path><g id="SvgjsG1160"><text id="SvgjsText1161" font-family="微软雅黑" text-anchor="middle" font-size="13px" width="828px" fill="#323232" font-weight="400" align="middle" anchor="middle" family="微软雅黑" size="13px" weight="400" font-style="" opacity="1" y="275.05" transform="rotate(0)"></text></g></g><g id="SvgjsG1162" transform="translate(356,25)"><path id="SvgjsPath1163" d="M 0 0L 120 0L 120 40L 0 40Z" stroke="none" fill="none"></path><g id="SvgjsG1164"><text id="SvgjsText1165" font-family="微软雅黑" text-anchor="middle" font-size="13px" width="120px" fill="#323232" font-weight="400" align="middle" anchor="middle" family="微软雅黑" size="13px" weight="400" font-style="" opacity="1" y="10.05" transform="rotate(0)"><tspan id="SvgjsTspan1166" dy="16" x="60"><tspan id="SvgjsTspan1167" style="text-decoration:;">Root Context</tspan></tspan></text></g></g><g id="SvgjsG1168" transform="translate(51,89)"><path id="SvgjsPath1169" d="M 0 4Q 0 0 4 0L 171 0Q 175 0 175 4L 175 487Q 175 491 171 491L 4 491Q 0 491 0 487Z" stroke="rgba(50,50,50,1)" stroke-width="2" fill-opacity="1" fill="#ffff99"></path><g id="SvgjsG1170"><text id="SvgjsText1171" font-family="微软雅黑" text-anchor="middle" font-size="13px" width="155px" fill="#323232" font-weight="400" align="middle" anchor="middle" family="微软雅黑" size="13px" weight="400" font-style="" opacity="1" y="235.55" transform="rotate(0)"></text></g></g><g id="SvgjsG1172" transform="translate(75,86)"><path id="SvgjsPath1173" d="M 0 0L 120 0L 120 40L 0 40Z" stroke="none" fill="none"></path><g id="SvgjsG1174"><text id="SvgjsText1175" font-family="微软雅黑" text-anchor="middle" font-size="13px" width="120px" fill="#323232" font-weight="400" align="middle" anchor="middle" family="微软雅黑" size="13px" weight="400" font-style="" opacity="1" y="10.05" transform="rotate(0)"><tspan id="SvgjsTspan1176" dy="16" x="60"><tspan id="SvgjsTspan1177" style="text-decoration:;">Child Context</tspan></tspan></text></g></g><g id="SvgjsG1178" transform="translate(58,158)"><path id="SvgjsPath1179" d="M 0 4Q 0 0 4 0L 150 0Q 154 0 154 4L 154 69Q 154 73 150 73L 4 73Q 0 73 0 69Z" stroke="rgba(50,50,50,1)" stroke-width="2" fill-opacity="1" fill="#66ffff"></path><g id="SvgjsG1180"><text id="SvgjsText1181" font-family="微软雅黑" text-anchor="middle" font-size="13px" width="134px" fill="#323232" font-weight="400" align="middle" anchor="middle" family="微软雅黑" size="13px" weight="400" font-style="" opacity="1" y="26.55" transform="rotate(0)"></text></g></g><g id="SvgjsG1182" transform="translate(75,174.5)"><path id="SvgjsPath1183" d="M 0 0L 120 0L 120 40L 0 40Z" stroke="none" fill="none"></path><g id="SvgjsG1184"><text id="SvgjsText1185" font-family="微软雅黑" text-anchor="middle" font-size="13px" width="120px" fill="#323232" font-weight="400" align="middle" anchor="middle" family="微软雅黑" size="13px" weight="400" font-style="" opacity="1" y="2.05" transform="rotate(0)"><tspan id="SvgjsTspan1186" dy="16" x="60"><tspan id="SvgjsTspan1187" style="text-decoration:;">Grandchild </tspan></tspan><tspan id="SvgjsTspan1188" dy="16" x="60"><tspan id="SvgjsTspan1189" style="text-decoration:;">Context</tspan></tspan></text></g></g><g id="SvgjsG1190" transform="translate(58,268)"><path id="SvgjsPath1191" d="M 0 4Q 0 0 4 0L 150 0Q 154 0 154 4L 154 69Q 154 73 150 73L 4 73Q 0 73 0 69Z" stroke="rgba(50,50,50,1)" stroke-width="2" fill-opacity="1" fill="#66ffff"></path><g id="SvgjsG1192"><text id="SvgjsText1193" font-family="微软雅黑" text-anchor="middle" font-size="13px" width="134px" fill="#323232" font-weight="400" align="middle" anchor="middle" family="微软雅黑" size="13px" weight="400" font-style="" opacity="1" y="26.55" transform="rotate(0)"></text></g></g><g id="SvgjsG1194" transform="translate(75,284.5)"><path id="SvgjsPath1195" d="M 0 0L 120 0L 120 40L 0 40Z" stroke="none" fill="none"></path><g id="SvgjsG1196"><text id="SvgjsText1197" font-family="微软雅黑" text-anchor="middle" font-size="13px" width="120px" fill="#323232" font-weight="400" align="middle" anchor="middle" family="微软雅黑" size="13px" weight="400" font-style="" opacity="1" y="2.05" transform="rotate(0)"><tspan id="SvgjsTspan1198" dy="16" x="60"><tspan id="SvgjsTspan1199" style="text-decoration:;">Grandchild </tspan></tspan><tspan id="SvgjsTspan1200" dy="16" x="60"><tspan id="SvgjsTspan1201" style="text-decoration:;">Context</tspan></tspan></text></g></g><g id="SvgjsG1202" transform="translate(61.5,372)"><path id="SvgjsPath1203" d="M 0 4Q 0 0 4 0L 150 0Q 154 0 154 4L 154 69Q 154 73 150 73L 4 73Q 0 73 0 69Z" stroke="rgba(50,50,50,1)" stroke-width="2" fill-opacity="1" fill="#66ffff"></path><g id="SvgjsG1204"><text id="SvgjsText1205" font-family="微软雅黑" text-anchor="middle" font-size="13px" width="134px" fill="#323232" font-weight="400" align="middle" anchor="middle" family="微软雅黑" size="13px" weight="400" font-style="" opacity="1" y="26.55" transform="rotate(0)"></text></g></g><g id="SvgjsG1206" transform="translate(78.5,388.5)"><path id="SvgjsPath1207" d="M 0 0L 120 0L 120 40L 0 40Z" stroke="none" fill="none"></path><g id="SvgjsG1208"><text id="SvgjsText1209" font-family="微软雅黑" text-anchor="middle" font-size="13px" width="120px" fill="#323232" font-weight="400" align="middle" anchor="middle" family="微软雅黑" size="13px" weight="400" font-style="" opacity="1" y="2.05" transform="rotate(0)"><tspan id="SvgjsTspan1210" dy="16" x="60"><tspan id="SvgjsTspan1211" style="text-decoration:;">Grandchild </tspan></tspan><tspan id="SvgjsTspan1212" dy="16" x="60"><tspan id="SvgjsTspan1213" style="text-decoration:;">Context</tspan></tspan></text></g></g><g id="SvgjsG1214" transform="translate(351,89)"><path id="SvgjsPath1215" d="M 0 4Q 0 0 4 0L 171 0Q 175 0 175 4L 175 487Q 175 491 171 491L 4 491Q 0 491 0 487Z" stroke="rgba(50,50,50,1)" stroke-width="2" fill-opacity="1" fill="#ffff99"></path><g id="SvgjsG1216"><text id="SvgjsText1217" font-family="微软雅黑" text-anchor="middle" font-size="13px" width="155px" fill="#323232" font-weight="400" align="middle" anchor="middle" family="微软雅黑" size="13px" weight="400" font-style="" opacity="1" y="235.55" transform="rotate(0)"></text></g></g><g id="SvgjsG1218" transform="translate(375,86)"><path id="SvgjsPath1219" d="M 0 0L 120 0L 120 40L 0 40Z" stroke="none" fill="none"></path><g id="SvgjsG1220"><text id="SvgjsText1221" font-family="微软雅黑" text-anchor="middle" font-size="13px" width="120px" fill="#323232" font-weight="400" align="middle" anchor="middle" family="微软雅黑" size="13px" weight="400" font-style="" opacity="1" y="10.05" transform="rotate(0)"><tspan id="SvgjsTspan1222" dy="16" x="60"><tspan id="SvgjsTspan1223" style="text-decoration:;">Child Context</tspan></tspan></text></g></g><g id="SvgjsG1224" transform="translate(358,158)"><path id="SvgjsPath1225" d="M 0 4Q 0 0 4 0L 150 0Q 154 0 154 4L 154 69Q 154 73 150 73L 4 73Q 0 73 0 69Z" stroke="rgba(50,50,50,1)" stroke-width="2" fill-opacity="1" fill="#66ffff"></path><g id="SvgjsG1226"><text id="SvgjsText1227" font-family="微软雅黑" text-anchor="middle" font-size="13px" width="134px" fill="#323232" font-weight="400" align="middle" anchor="middle" family="微软雅黑" size="13px" weight="400" font-style="" opacity="1" y="26.55" transform="rotate(0)"></text></g></g><g id="SvgjsG1228" transform="translate(375,174.5)"><path id="SvgjsPath1229" d="M 0 0L 120 0L 120 40L 0 40Z" stroke="none" fill="none"></path><g id="SvgjsG1230"><text id="SvgjsText1231" font-family="微软雅黑" text-anchor="middle" font-size="13px" width="120px" fill="#323232" font-weight="400" align="middle" anchor="middle" family="微软雅黑" size="13px" weight="400" font-style="" opacity="1" y="2.05" transform="rotate(0)"><tspan id="SvgjsTspan1232" dy="16" x="60"><tspan id="SvgjsTspan1233" style="text-decoration:;">Grandchild </tspan></tspan><tspan id="SvgjsTspan1234" dy="16" x="60"><tspan id="SvgjsTspan1235" style="text-decoration:;">Context</tspan></tspan></text></g></g><g id="SvgjsG1236" transform="translate(358,268)"><path id="SvgjsPath1237" d="M 0 4Q 0 0 4 0L 150 0Q 154 0 154 4L 154 69Q 154 73 150 73L 4 73Q 0 73 0 69Z" stroke="rgba(50,50,50,1)" stroke-width="2" fill-opacity="1" fill="#66ffff"></path><g id="SvgjsG1238"><text id="SvgjsText1239" font-family="微软雅黑" text-anchor="middle" font-size="13px" width="134px" fill="#323232" font-weight="400" align="middle" anchor="middle" family="微软雅黑" size="13px" weight="400" font-style="" opacity="1" y="26.55" transform="rotate(0)"></text></g></g><g id="SvgjsG1240" transform="translate(375,284.5)"><path id="SvgjsPath1241" d="M 0 0L 120 0L 120 40L 0 40Z" stroke="none" fill="none"></path><g id="SvgjsG1242"><text id="SvgjsText1243" font-family="微软雅黑" text-anchor="middle" font-size="13px" width="120px" fill="#323232" font-weight="400" align="middle" anchor="middle" family="微软雅黑" size="13px" weight="400" font-style="" opacity="1" y="2.05" transform="rotate(0)"><tspan id="SvgjsTspan1244" dy="16" x="60"><tspan id="SvgjsTspan1245" style="text-decoration:;">Grandchild </tspan></tspan><tspan id="SvgjsTspan1246" dy="16" x="60"><tspan id="SvgjsTspan1247" style="text-decoration:;">Context</tspan></tspan></text></g></g><g id="SvgjsG1248" transform="translate(361.5,372)"><path id="SvgjsPath1249" d="M 0 4Q 0 0 4 0L 150 0Q 154 0 154 4L 154 69Q 154 73 150 73L 4 73Q 0 73 0 69Z" stroke="rgba(50,50,50,1)" stroke-width="2" fill-opacity="1" fill="#66ffff"></path><g id="SvgjsG1250"><text id="SvgjsText1251" font-family="微软雅黑" text-anchor="middle" font-size="13px" width="134px" fill="#323232" font-weight="400" align="middle" anchor="middle" family="微软雅黑" size="13px" weight="400" font-style="" opacity="1" y="26.55" transform="rotate(0)"></text></g></g><g id="SvgjsG1252" transform="translate(378.5,388.5)"><path id="SvgjsPath1253" d="M 0 0L 120 0L 120 40L 0 40Z" stroke="none" fill="none"></path><g id="SvgjsG1254"><text id="SvgjsText1255" font-family="微软雅黑" text-anchor="middle" font-size="13px" width="120px" fill="#323232" font-weight="400" align="middle" anchor="middle" family="微软雅黑" size="13px" weight="400" font-style="" opacity="1" y="2.05" transform="rotate(0)"><tspan id="SvgjsTspan1256" dy="16" x="60"><tspan id="SvgjsTspan1257" style="text-decoration:;">Grandchild </tspan></tspan><tspan id="SvgjsTspan1258" dy="16" x="60"><tspan id="SvgjsTspan1259" style="text-decoration:;">Context</tspan></tspan></text></g></g><g id="SvgjsG1260" transform="translate(641,89)"><path id="SvgjsPath1261" d="M 0 4Q 0 0 4 0L 171 0Q 175 0 175 4L 175 487Q 175 491 171 491L 4 491Q 0 491 0 487Z" stroke="rgba(50,50,50,1)" stroke-width="2" fill-opacity="1" fill="#ffff99"></path><g id="SvgjsG1262"><text id="SvgjsText1263" font-family="微软雅黑" text-anchor="middle" font-size="13px" width="155px" fill="#323232" font-weight="400" align="middle" anchor="middle" family="微软雅黑" size="13px" weight="400" font-style="" opacity="1" y="235.55" transform="rotate(0)"></text></g></g><g id="SvgjsG1264" transform="translate(665,86)"><path id="SvgjsPath1265" d="M 0 0L 120 0L 120 40L 0 40Z" stroke="none" fill="none"></path><g id="SvgjsG1266"><text id="SvgjsText1267" font-family="微软雅黑" text-anchor="middle" font-size="13px" width="120px" fill="#323232" font-weight="400" align="middle" anchor="middle" family="微软雅黑" size="13px" weight="400" font-style="" opacity="1" y="10.05" transform="rotate(0)"><tspan id="SvgjsTspan1268" dy="16" x="60"><tspan id="SvgjsTspan1269" style="text-decoration:;">Child Context</tspan></tspan></text></g></g><g id="SvgjsG1270" transform="translate(648,158)"><path id="SvgjsPath1271" d="M 0 4Q 0 0 4 0L 150 0Q 154 0 154 4L 154 69Q 154 73 150 73L 4 73Q 0 73 0 69Z" stroke="rgba(50,50,50,1)" stroke-width="2" fill-opacity="1" fill="#66ffff"></path><g id="SvgjsG1272"><text id="SvgjsText1273" font-family="微软雅黑" text-anchor="middle" font-size="13px" width="134px" fill="#323232" font-weight="400" align="middle" anchor="middle" family="微软雅黑" size="13px" weight="400" font-style="" opacity="1" y="26.55" transform="rotate(0)"></text></g></g><g id="SvgjsG1274" transform="translate(665,174.5)"><path id="SvgjsPath1275" d="M 0 0L 120 0L 120 40L 0 40Z" stroke="none" fill="none"></path><g id="SvgjsG1276"><text id="SvgjsText1277" font-family="微软雅黑" text-anchor="middle" font-size="13px" width="120px" fill="#323232" font-weight="400" align="middle" anchor="middle" family="微软雅黑" size="13px" weight="400" font-style="" opacity="1" y="2.05" transform="rotate(0)"><tspan id="SvgjsTspan1278" dy="16" x="60"><tspan id="SvgjsTspan1279" style="text-decoration:;">Grandchild </tspan></tspan><tspan id="SvgjsTspan1280" dy="16" x="60"><tspan id="SvgjsTspan1281" style="text-decoration:;">Context</tspan></tspan></text></g></g><g id="SvgjsG1282" transform="translate(648,268)"><path id="SvgjsPath1283" d="M 0 4Q 0 0 4 0L 150 0Q 154 0 154 4L 154 69Q 154 73 150 73L 4 73Q 0 73 0 69Z" stroke="rgba(50,50,50,1)" stroke-width="2" fill-opacity="1" fill="#66ffff"></path><g id="SvgjsG1284"><text id="SvgjsText1285" font-family="微软雅黑" text-anchor="middle" font-size="13px" width="134px" fill="#323232" font-weight="400" align="middle" anchor="middle" family="微软雅黑" size="13px" weight="400" font-style="" opacity="1" y="26.55" transform="rotate(0)"></text></g></g><g id="SvgjsG1286" transform="translate(665,284.5)"><path id="SvgjsPath1287" d="M 0 0L 120 0L 120 40L 0 40Z" stroke="none" fill="none"></path><g id="SvgjsG1288"><text id="SvgjsText1289" font-family="微软雅黑" text-anchor="middle" font-size="13px" width="120px" fill="#323232" font-weight="400" align="middle" anchor="middle" family="微软雅黑" size="13px" weight="400" font-style="" opacity="1" y="2.05" transform="rotate(0)"><tspan id="SvgjsTspan1290" dy="16" x="60"><tspan id="SvgjsTspan1291" style="text-decoration:;">Grandchild </tspan></tspan><tspan id="SvgjsTspan1292" dy="16" x="60"><tspan id="SvgjsTspan1293" style="text-decoration:;">Context</tspan></tspan></text></g></g><g id="SvgjsG1294" transform="translate(651.5,372)"><path id="SvgjsPath1295" d="M 0 4Q 0 0 4 0L 150 0Q 154 0 154 4L 154 69Q 154 73 150 73L 4 73Q 0 73 0 69Z" stroke="rgba(50,50,50,1)" stroke-width="2" fill-opacity="1" fill="#66ffff"></path><g id="SvgjsG1296"><text id="SvgjsText1297" font-family="微软雅黑" text-anchor="middle" font-size="13px" width="134px" fill="#323232" font-weight="400" align="middle" anchor="middle" family="微软雅黑" size="13px" weight="400" font-style="" opacity="1" y="26.55" transform="rotate(0)"></text></g></g><g id="SvgjsG1298" transform="translate(668.5,388.5)"><path id="SvgjsPath1299" d="M 0 0L 120 0L 120 40L 0 40Z" stroke="none" fill="none"></path><g id="SvgjsG1300"><text id="SvgjsText1301" font-family="微软雅黑" text-anchor="middle" font-size="13px" width="120px" fill="#323232" font-weight="400" align="middle" anchor="middle" family="微软雅黑" size="13px" weight="400" font-style="" opacity="1" y="2.05" transform="rotate(0)"><tspan id="SvgjsTspan1302" dy="16" x="60"><tspan id="SvgjsTspan1303" style="text-decoration:;">Grandchild </tspan></tspan><tspan id="SvgjsTspan1304" dy="16" x="60"><tspan id="SvgjsTspan1305" style="text-decoration:;">Context</tspan></tspan></text></g></g></svg>